<?xml version="1.0" standalone="no"?>
<!DOCTYPE svg PUBLIC "-//W3C//DTD SVG 20010904//EN"
 "http://www.w3.org/TR/2001/REC-SVG-20010904/DTD/svg10.dtd">
<svg version="1.0" xmlns="http://www.w3.org/2000/svg"
 width="984.000000pt" height="984.000000pt" viewBox="0 0 984.000000 984.000000"
 preserveAspectRatio="xMidYMid meet">
<metadata>
Created by potrace 1.11, written by Peter Selinger 2001-2013
</metadata>
<g transform="translate(0.000000,984.000000) scale(0.100000,-0.100000)"
fill="#000000" stroke="none">
<path d="M1649 9836 c-2 -3 -22 -7 -44 -9 -44 -6 -97 -20 -165 -45 -51 -18
-163 -81 -168 -94 -2 -4 -8 -8 -13 -8 -14 0 -89 -69 -155 -142 -22 -25 -124
-176 -124 -185 0 -2 -16 -37 -36 -76 -29 -58 -105 -258 -105 -277 0 -3 -4 -23
-10 -45 -6 -22 -13 -48 -15 -58 -2 -10 -5 -26 -8 -35 -7 -24 -18 -82 -21 -112
-1 -14 -3 -25 -5 -25 -4 0 -20 -120 -35 -260 -28 -262 -27 -776 1 -1140 2 -27
6 -77 9 -110 5 -70 13 -154 20 -210 2 -22 7 -71 10 -110 4 -38 8 -81 11 -95 4
-26 12 -90 18 -150 2 -19 6 -46 9 -60 3 -14 8 -45 11 -70 3 -25 8 -63 11 -85
5 -36 9 -63 30 -180 2 -16 7 -41 10 -55 2 -13 7 -40 10 -60 3 -20 8 -47 10
-60 3 -14 8 -41 11 -60 3 -19 7 -43 10 -52 7 -25 14 -59 20 -97 2 -19 9 -51
14 -70 10 -40 48 -205 54 -236 4 -20 22 -93 31 -127 3 -10 7 -26 9 -35 2 -10
18 -70 36 -133 17 -63 33 -122 35 -130 2 -8 12 -43 23 -77 11 -35 18 -63 16
-63 -3 0 0 -9 6 -21 6 -11 13 -28 15 -37 2 -9 17 -57 34 -107 17 -49 33 -97
35 -105 5 -18 59 -173 74 -211 10 -24 7 -29 -21 -50 -183 -139 -258 -212 -405
-394 -8 -11 -42 -60 -73 -110 -32 -49 -63 -96 -69 -102 -6 -7 -8 -13 -5 -13 3
0 -5 -17 -18 -37 -24 -38 -37 -68 -36 -79 0 -4 -3 -10 -8 -13 -8 -5 -72 -143
-78 -166 -1 -5 -5 -17 -8 -25 -21 -49 -54 -159 -49 -164 3 -3 -1 -6 -8 -6 -7
0 -11 -3 -7 -6 3 -3 2 -17 -3 -30 -6 -14 -12 -35 -14 -47 -2 -12 -12 -51 -21
-87 -8 -36 -18 -78 -20 -93 -21 -138 -23 -159 -32 -242 -10 -90 -10 -447 0
-545 13 -130 23 -205 27 -205 1 0 3 -15 5 -34 2 -18 9 -54 15 -80 6 -25 13
-57 16 -71 7 -32 12 -54 14 -60 1 -3 2 -8 1 -12 0 -4 6 -25 14 -47 8 -23 15
-43 15 -46 1 -6 3 -15 35 -115 42 -131 110 -293 177 -420 34 -63 66 -125 72
-137 6 -13 14 -23 19 -23 4 0 7 -4 7 -10 0 -11 140 -221 160 -240 3 -3 21 -25
40 -50 97 -125 338 -354 440 -419 14 -8 27 -18 30 -21 3 -4 41 -28 85 -55 44
-27 87 -55 96 -62 8 -7 23 -13 31 -13 9 0 18 -5 20 -11 2 -5 11 -11 20 -12 9
-2 22 -7 29 -13 40 -28 233 -104 329 -130 68 -18 297 -25 375 -12 193 33 368
149 444 295 17 34 32 66 33 70 0 5 2 13 4 18 25 82 27 299 4 420 -6 33 -13 74
-16 90 -3 17 -7 37 -10 45 -3 8 -8 26 -10 40 -3 14 -12 49 -21 79 -8 29 -17
61 -18 70 -2 9 -4 17 -5 19 -2 1 -3 5 -4 10 -2 10 -25 88 -41 137 -13 41 -78
246 -80 255 -5 20 -58 190 -65 210 -6 14 -12 36 -14 50 -3 14 -5 26 -7 28 -1
1 -2 6 -3 11 0 5 -4 13 -8 17 -5 4 -8 15 -8 25 0 10 -7 38 -14 61 -8 24 -17
54 -20 68 -3 14 -10 43 -16 65 -6 22 -13 55 -16 74 -2 18 -9 41 -14 51 -6 10
-10 27 -10 37 0 13 11 6 41 -27 22 -25 70 -78 107 -119 89 -99 339 -348 437
-436 42 -38 90 -81 105 -95 16 -14 42 -36 60 -50 17 -14 46 -38 63 -53 18 -16
51 -43 75 -60 23 -17 42 -34 42 -39 0 -4 5 -8 11 -8 6 0 17 -6 24 -13 30 -26
143 -111 197 -147 21 -14 38 -28 38 -32 0 -5 7 -8 15 -8 8 0 15 -4 15 -10 0
-5 7 -10 15 -10 8 0 15 -4 15 -10 0 -5 7 -10 15 -10 8 0 15 -4 15 -10 0 -5 5
-10 11 -10 6 0 17 -6 24 -12 27 -24 40 -34 55 -41 8 -4 57 -34 109 -67 51 -33
97 -60 102 -60 5 0 9 -4 9 -8 0 -4 12 -13 28 -19 15 -7 45 -23 67 -37 22 -14
69 -41 105 -60 36 -19 94 -51 130 -70 65 -36 328 -166 335 -166 2 0 36 -15 77
-34 40 -19 102 -46 138 -61 36 -14 74 -30 85 -35 27 -13 147 -57 220 -81 33
-12 67 -23 75 -26 8 -4 18 -5 23 -5 4 1 7 -2 7 -6 0 -5 6 -9 13 -9 6 0 53 -13
102 -27 50 -15 97 -29 105 -31 8 -2 15 -4 15 -5 0 -1 7 -3 15 -5 8 -1 44 -10
80 -19 70 -18 73 -18 171 -40 71 -15 104 -22 159 -31 19 -3 58 -10 85 -15 84
-15 128 -22 175 -25 25 -2 45 -5 45 -6 0 -1 18 -3 40 -5 22 -1 40 -3 40 -4 0
-3 15 -4 170 -15 80 -6 484 -10 575 -6 19 1 42 1 50 1 8 0 31 2 50 5 19 3 67
7 105 10 39 2 70 5 70 6 0 0 14 3 30 4 66 7 120 14 120 15 0 1 23 4 109 15 27
3 52 8 56 10 4 3 25 7 46 9 22 2 50 7 64 10 30 7 74 15 114 21 16 2 43 9 60
14 17 6 45 12 61 15 50 8 157 36 169 44 6 3 13 7 16 8 11 2 46 16 62 25 10 5
25 9 33 9 8 0 15 5 15 12 0 6 3 9 6 5 13 -13 307 158 357 207 9 9 20 16 25 16
19 0 211 200 263 275 93 132 174 306 195 415 3 14 10 45 16 70 17 74 18 257 1
335 -27 128 -100 254 -208 358 -45 44 -234 177 -250 177 -4 0 -20 9 -36 21
-16 11 -29 18 -29 15 0 -3 -22 6 -48 19 -67 34 -242 104 -242 98 0 -3 -6 -1
-12 4 -7 5 -53 22 -103 38 -49 15 -99 32 -110 36 -11 4 -38 13 -60 19 -22 6
-46 13 -53 15 -7 3 -13 5 -15 5 -1 0 -101 34 -222 76 -121 41 -228 76 -237 78
-9 3 -26 10 -37 16 -12 6 -21 7 -21 3 0 -4 -4 -3 -8 2 -4 6 -38 21 -77 34 -38
12 -115 41 -170 63 -55 22 -104 41 -110 42 -10 3 -50 20 -130 54 -21 9 -42 17
-45 18 -6 1 -19 6 -135 57 -196 85 -588 276 -593 289 -2 5 -8 6 -13 2 -5 -3
-9 -1 -9 4 0 4 -16 14 -35 22 -19 8 -35 17 -35 22 0 4 -5 8 -12 8 -14 0 -172
91 -176 102 -2 4 -9 8 -15 8 -6 0 -40 19 -76 42 -36 23 -94 59 -128 80 -34 22
-72 48 -84 59 -12 10 -25 19 -29 19 -4 0 -64 43 -135 95 -70 52 -129 95 -131
95 -2 0 -12 8 -22 17 -10 10 -35 32 -56 48 -21 17 -44 35 -51 42 -6 6 -41 35
-76 64 -35 30 -127 115 -204 191 -77 76 -143 138 -147 138 -5 0 -8 4 -8 9 0 5
-15 25 -32 43 -49 52 -97 107 -152 173 -27 33 -54 65 -60 70 -29 27 -15 34 53
30 76 -5 170 -14 204 -21 11 -2 39 -6 62 -9 38 -5 65 -10 110 -20 11 -2 56
-13 100 -25 44 -11 91 -22 104 -25 13 -2 29 -9 35 -15 5 -5 16 -10 23 -10 14
0 83 -30 238 -104 202 -97 244 -116 254 -116 6 0 11 -4 11 -9 0 -5 12 -12 27
-16 15 -3 46 -15 68 -25 22 -10 54 -22 70 -26 17 -4 35 -10 40 -14 9 -7 63
-21 145 -37 41 -8 202 -8 245 0 56 10 195 74 195 89 0 4 6 8 13 8 20 0 112
101 146 162 57 101 78 183 76 300 -1 57 -4 110 -7 118 -3 8 -9 33 -13 55 -12
51 -10 45 -23 80 -41 103 -136 251 -247 384 -133 158 -380 399 -518 504 -16
12 -47 37 -69 55 -22 17 -43 32 -47 32 -3 0 -17 10 -31 23 -42 38 -278 181
-408 246 -67 34 -123 61 -124 60 -3 -1 -46 15 -93 36 -45 19 -148 54 -170 58
-11 1 -25 6 -31 9 -10 7 -37 13 -99 24 -16 3 -32 10 -33 15 -2 5 -8 7 -13 4
-5 -3 -26 -2 -46 4 -39 10 -71 15 -178 28 -70 9 -390 8 -455 -1 -99 -14 -132
-21 -210 -42 -30 -8 -62 -16 -70 -18 -36 -9 -180 -68 -185 -77 -4 -5 -13 -9
-21 -9 -8 0 -32 -11 -52 -25 -26 -18 -38 -21 -41 -13 -2 7 -12 31 -21 53 -10
22 -30 69 -45 105 -14 36 -32 79 -39 95 -17 39 -41 99 -42 105 0 3 -5 16 -11
30 -6 14 -21 50 -32 80 -12 30 -26 64 -31 75 -4 11 -23 58 -40 105 -17 47 -35
94 -40 105 -10 23 -140 383 -140 390 0 2 -5 16 -12 32 -6 15 -12 30 -13 33 -3
12 -27 86 -32 100 -4 8 -7 17 -8 20 0 3 -9 32 -20 65 -10 33 -19 63 -21 68 -1
4 -3 9 -4 12 -1 3 -3 8 -4 13 -1 4 -5 18 -10 32 -4 14 -26 84 -47 155 -22 72
-43 137 -46 145 -3 8 -7 20 -8 25 -4 18 -106 319 -115 340 -11 26 -22 57 -26
70 -1 6 -8 24 -15 40 -6 17 -13 35 -14 40 -10 38 -172 411 -189 434 -5 7 -11
19 -12 27 -1 7 -12 27 -24 44 -12 16 -19 30 -16 30 13 0 -185 309 -228 356 -6
7 -27 31 -46 55 -48 60 -134 143 -201 195 -55 42 -209 130 -209 119 0 -3 -10
0 -22 6 -47 25 -127 41 -234 45 -61 2 -113 2 -115 0z"/>
</g>
</svg>
